# AST/ASF file generated using VICON BodyLanguage
# -----------------------------------------------
:version 1.10
:name VICON
:units
  mass 1.0
  length 0.45
  angle deg
:documentation
   .ast/.asf automatically generated from VICON data using
   VICON BodyBuilder and BodyLanguage model FoxedUp or BRILLIANT.MOD
:root
   order TX TY TZ RX RY RZ
   axis XYZ
   position 0 0 0  
   orientation 0 0 0 
:bonedata
  begin
     id 1 
     name lhipjoint
     direction 0.714689 -0.624256 0.315473 
     length 2.45343 
     axis 0 0 0  XYZ
  end
  begin
     id 2 
     name lfemur
     direction 0.34202 -0.939693 0  
     length 6.59069  
     axis 0 0 20  XYZ
    dof rx ry rz
    limits (-160.0 20.0)
           (-70.0 70.0)
           (-60.0 70.0)
  end
  begin
     id 3 
     name ltibia
     direction 0.34202 -0.939693 0   
     length 6.73476   
     axis 0 0 20   XYZ
    dof rx
    limits (-10.0 170.0)
  end
  begin
     id 4 
     name lfoot
     direction 0.0718085 -0.197292 0.977711   
     length 1.52607   
     axis -90 7.62852e-016 20   XYZ
    dof rx rz
    limits (-45.0 90.0)
           (-70.0 20.0)
  end
  begin
     id 5 
     name ltoes
     direction 1.53553e-011 -4.22024e-011 1   
     length 0.777832   
     axis -90 7.62852e-016 20   XYZ
    dof rx
    limits (-90.0 20.0)
  end
  begin
     id 6 
     name rhipjoint
     direction -0.727419 -0.612432 0.309497   
     length 2.50079  
     axis 0 0 0  XYZ 
  end
  begin
     id 7 
     name rfemur
     direction -0.34202 -0.939693 0   
     length 6.51665   
     axis 0 0 -20   XYZ
    dof rx ry rz
    limits (-160.0 20.0)
           (-70.0 70.0)
           (-70.0 60.0)
  end
  begin
     id 8 
     name rtibia
     direction -0.34202 -0.939693 0   
     length 6.48919   
     axis 0 0 -20   XYZ
    dof rx
    limits (-10.0 170.0)
 end
 begin
     id 9 
     name rfoot
     direction -0.112205 -0.308282 0.944655   
     length 1.68717  
     axis -90 -7.62852e-016 -20   XYZ
    dof rx rz
    limits (-45.0 90.0)
           (-20.0 70.0)
  end
  begin
     id 10 
     name rtoes
     direction -1.53583e-011 -4.21993e-011 1   
     length 0.846859   
     axis -90 -7.62852e-016 -20   XYZ
    dof rx
    limits (-90.0 20.0)
  end
  begin
     id 11 
     name lowerback
     direction -0.00119603 0.996364 -0.0851956   
     length 1.67242   
     axis 0 0 0   XYZ
    dof rx ry rz
    limits (-20.0 45.0)
           (-30.0 30.0)
           (-30.0 30.0)
  end
  begin
     id 12 
     name upperback
     direction -0.00531001 0.998318 0.0577248   
     length 1.64819   
     axis 0 0 0   XYZ
    dof rx ry rz
    limits (-20.0 45.0)
           (-30.0 30.0)
           (-30.0 30.0)
  end
  begin
     id 13 
     name thorax
     direction -0.00653676 0.995132 0.0983291   
     length 1.67429   
     axis 0 0 0   XYZ
    dof rx ry rz
    limits (-20.0 45.0)
           (-30.0 30.0)
           (-30.0 30.0)
  end
  begin
     id 14 
     name lowerneck
     direction 0.0141424 0.999886 0.00525412   
     length 1.59623   
     axis 0 0 0   XYZ
    dof rx ry rz
    limits (-20.0 45.0)
           (-30.0 30.0)
           (-30.0 30.0)
  end
  begin
     id 15 
     name upperneck
     direction -0.0640064 0.987178 -0.146232   
     length 1.59576   
     axis 0 0 0   XYZ
    dof rx ry rz
    limits (-20.0 45.0)
           (-30.0 30.0)
           (-30.0 30.0)
  end
  begin
     id 16
     name head
     direction -0.0222942 0.998496 -0.0500859  
     length 1.60959  
     axis 0 0 0   XYZ
    dof rx ry rz
    limits (-20.0 45.0)
           (-30.0 30.0)
           (-30.0 30.0)
  end
  begin
     id 17 
     name lclavicle
     direction 0.908549 0.392612 0.142806  
     length 2.80649  
     axis 0 0 0   XYZ
    dof ry rz
    limits (-20.0 10.0)
           (0.0 20.0)
  end
  begin
     id 18 
     name lhumerus
     direction 1 -4.48968e-011 1.08832e-028   
     length 4.2884   
     axis -180 -30 -90   XYZ
    dof rx ry rz
    limits (-60.0 90.0)
           (-90.0 90.0)
           (-90.0 90.0)
  end
  begin
     id 19
     name lradius
     direction 1 -4.48952e-011 -3.02642e-028   
     length 3.06552   
     axis -180 -30 -90   XYZ
    dof rx
    limits (-10.0 170.0)
  end
  begin
     id 20
     name lwrist
     direction 1 -4.49014e-011 1.58672e-027   
     length 1.53276   
     axis -1.65735e-015 90 90   XYZ
    dof ry
    limits (-180.0 0.0)
 end
  begin
     id 21 
     name lhand
     direction 1 -4.48928e-011 3.17344e-027   
     length 0.753045   
     axis -2.02492e-015 90 90   XYZ
    dof rx rz
    limits (-90.0 90.0)
           (-45.0 45.0)
  end
  begin
     id 22 
     name lfingers
     direction 1 -4.48958e-011 6.34687e-027   
     length 0.607124   
     axis -4.04985e-015 90 90   XYZ
    dof rx
    limits (0.0 90.0)
  end
  begin
     id 23
     name lthumb
     direction 0.707107 -6.34905e-011 0.707107   
     length 0.871712   
     axis -90 45 2.85299e-015   XYZ
    dof rx rz
    limits (-45.0 45.0)
           (-45.0 45.0)
  end
  begin
     id 24 
     name rclavicle
     direction -0.885098 0.45949 0.0739604   
     length 2.9478  
     axis 0 0 0   XYZ 
    dof ry rz
    limits (-10.0 20.0)
           (-20.0 0.0)
  end
  begin
     id 25 
     name rhumerus
     direction -1 -4.4898e-011 -2.61739e-027  
     length 4.52172   
     axis -180 30 90   XYZ
    dof rx ry rz
    limits (-90.0 60.0)
           (-90.0 90.0)
           (-90.0 90.0)
  end
  begin
     id 26 
     name rradius
     direction -1 -4.48945e-011 9.02552e-028   
     length 2.8914   
     axis -180 30 90   XYZ
    dof rx
    limits (-10.0 170.0)
  end
  begin
     id 27 
     name rwrist
     direction -1 -4.49018e-011 1.58672e-027   
     length 1.4457   
     axis -1.65735e-015 -90 -90   XYZ
    dof ry
    limits (-180.0 0.0)
  end
  begin
     id 28
     name rhand
     direction -1 -4.48825e-011 3.17344e-027   
     length 0.680541   
     axis -2.02492e-015 -90 -90   XYZ
    dof rx rz
    limits (-90.0 90.0)
           (-45.0 45.0)
  end
  begin
     id 29
     name rfingers
     direction -1 -4.49067e-011 6.34687e-027   
     length 0.54867   
     axis -4.04985e-015 -90 -90   XYZ
    dof rx
    limits (0.0 90.0)
  end
  begin
     id 30
     name rthumb
     direction -0.707107 -6.34833e-011 0.707107   
     length 0.787783   
     axis -90 -45 -2.85299e-015   XYZ
    dof rx rz
    limits (-45.0 45.0)
           (-45.0 45.0)
  end
:hierarchy
  begin
    root lhipjoint rhipjoint lowerback
    lhipjoint lfemur
    lfemur ltibia
    ltibia lfoot
    lfoot ltoes
    rhipjoint rfemur
    rfemur rtibia
    rtibia rfoot
    rfoot rtoes
    lowerback upperback
    upperback thorax
    thorax lowerneck lclavicle rclavicle
    lowerneck upperneck
    upperneck head
    lclavicle lhumerus
    lhumerus lradius
    lradius lwrist
    lwrist lhand lthumb
    lhand lfingers
    rclavicle rhumerus
    rhumerus rradius
    rradius rwrist
    rwrist rhand rthumb
    rhand rfingers
  end

#!OML:ASF E:\emotionWalksFemale\Project 1\Capture day 1\Session 1\Female1.ASF
:FULLY-SPECIFIED
:DEGREES
97
root 9.02812 15.052 41.6929 181.851 -14.6929 179.54
lowerback 5.07037 2.31183 1.42348
upperback -4.2806 3.13108 -0.0760078
thorax -7.23806 1.42805 -1.22245
lowerneck -2.84892 15.2653 8.35395
upperneck 13.203 20.2792 -3.65443
head 5.6876 10.0138 -1.04791
rclavicle 2.55935e-014 -5.1684e-015
rhumerus -49.2074 16.1007 -99.2638
rradius 33.2909
rwrist 13.6537
rhand -7.47694 -52.2001
rfingers 7.12502
rthumb 18.4121 -81.3487
lclavicle 2.55935e-014 -5.1684e-015
lhumerus -41.5318 -10.0911 93.1119
lradius 36.1345
lwrist -17.9567
lhand -5.20271 -34.7443
lfingers 7.12502
lthumb 20.5986 -5.81724
rfemur -6.28024 16.2311 27.5797
rtibia 30.4357
rfoot -31.2238 -34.2676
rtoes 13.7061
lfemur -13.1971 -24.6939 -23.1014
ltibia 33.8462
lfoot -25.653 10.3725
ltoes -28.5648
98
root 9.02601 15.0509 41.6923 181.796 -14.7267 179.586
lowerback 5.07292 2.28274 1.45506
upperback -4.24779 3.09843 -0.0353112
thorax -7.20605 1.41274 -1.19326
lowerneck -2.90583 15.259 8.31042
upperneck 13.2417 20.2711 -3.65228
head 5.70389 10.0063 -1.03661
rclavicle 2.56929e-014 5.96354e-015
rhumerus -49.1519 16.2816 -99.277
rradius 33.2765
rwrist 13.7504
rhand -7.23936 -52.3302
rfingers 7.12502
rthumb 18.6406 -81.457
lclavicle 2.56929e-014 5.96354e-015
lhumerus -41.4625 -9.91059 93.0526
lradius 36.2254
lwrist -17.5368
lhand -3.94105 -34.3512
lfingers 7.12502
lthumb 21.8106 -5.56025
rfemur -6.17816 16.2432 27.6567
rtibia 30.3753
rfoot -31.346 -34.2711
rtoes 14.2322
lfemur -13.1552 -24.9462 -23.101
ltibia 33.9124
lfoot -25.6716 10.7391
ltoes -28.9589
99
root 9.02545 15.0505 41.6912 181.766 -14.7035 179.645
lowerback 5.09762 2.28207 1.47426
upperback -4.26038 3.10211 0.0115295
thorax -7.23538 1.41407 -1.15689
lowerneck -2.90781 15.2509 8.23215
upperneck 13.2618 20.2592 -3.60473
head 5.69677 9.9991 -1.01424
rclavicle -2.4289e-014 9.54166e-015
rhumerus -49.2172 16.4333 -99.3216
rradius 33.1214
rwrist 14.433
rhand -7.6068 -52.0276
rfingers 7.12502
rthumb 18.2871 -81.188
lclavicle -2.4289e-014 9.54166e-015
lhumerus -41.4932 -9.80599 93.0618
lradius 36.3534
lwrist -17.1307
lhand -2.97539 -34.3055
lfingers 7.12502
lthumb 22.7376 -5.62532
rfemur -6.12007 16.2526 27.7407
rtibia 30.3353
rfoot -31.339 -34.2475
rtoes 14.5793
lfemur -13.1124 -25.4388 -23.0893
ltibia 33.9515
lfoot -25.7982 11.1429
ltoes -28.8954
100
root 9.02493 15.0498 41.6909 181.789 -14.6662 179.91
lowerback 5.05268 2.28964 1.72905
upperback -4.31811 3.13363 0.0774243
thorax -7.26062 1.41578 -1.23277
lowerneck -2.83875 15.2611 8.20564
upperneck 13.2186 20.2687 -3.5386
head 5.66276 10.0087 -0.999231
rclavicle -1.05853e-014 -1.15295e-014
rhumerus -49.0866 16.2353 -99.1222
rradius 33.4737
rwrist 12.9975
rhand -6.52025 -52.5368
rfingers 7.12502
rthumb 19.3322 -81.5959
lclavicle -1.05853e-014 -1.15295e-014
lhumerus -41.5562 -9.78226 93.0594
lradius 36.3762
lwrist -17.2546
lhand -3.40605 -34.5891
lfingers 7.12502
lthumb 22.3242 -5.8588
rfemur -6.2131 16.259 27.9842
rtibia 30.2957
rfoot -31.0992 -34.3215
rtoes 13.9477
lfemur -13.209 -25.658 -22.7811
ltibia 33.9871
lfoot -25.9842 11.0885
ltoes -28.1074
101
root 9.02544 15.051 41.6897 181.803 -14.7008 179.75
lowerback 5.09428 2.27924 1.56384
upperback -4.31122 3.10488 0.0300029
thorax -7.28413 1.40914 -1.18892
lowerneck -2.82853 15.2567 8.26145
upperneck 13.212 20.2666 -3.5931
head 5.67036 10.0071 -1.02243
rclavicle 2.17048e-014 9.93923e-016
rhumerus -49.1436 16.3474 -99.2496
rradius 33.2694
rwrist 13.6787
rhand -7.1097 -51.8621
rfingers 7.12502
rthumb 18.7653 -80.9769
lclavicle 2.17048e-014 9.93923e-016
lhumerus -41.5475 -9.87318 93.0811
lradius 36.3742
lwrist -17.3087
lhand -3.93301 -34.55
lfingers 7.12502
lthumb 21.8183 -5.75992
rfemur -6.16924 16.2808 27.8356
rtibia 30.2638
rfoot -30.9776 -34.4421
rtoes 13.4702
lfemur -13.1968 -25.3559 -22.9349
ltibia 34.0109
lfoot -26.0125 10.8495
ltoes -28.3526
102
root 9.02456 15.0543 41.6863 181.914 -14.7056 179.642
lowerback 4.96749 2.29278 1.45615
upperback -4.33264 3.10662 -0.0189438
thorax -7.23616 1.41406 -1.17484
lowerneck -2.85877 15.2307 8.3853
upperneck 13.2793 20.2362 -3.70408
head 5.71923 9.98866 -1.06573
rclavicle -1.21892e-013 -1.68967e-014
rhumerus -49.1985 16.3835 -99.331
rradius 33.2359
rwrist 13.6679
rhand -7.06867 -51.7894
rfingers 7.12502
rthumb 18.8048 -80.9005
lclavicle -1.21892e-013 -1.68967e-014
lhumerus -41.6247 -10.0531 93.1346
lradius 36.4786
lwrist -17.1015
lhand -3.93217 -34.3433
lfingers 7.12502
lthumb 21.8191 -5.55328
rfemur -6.23019 16.3575 27.7028
rtibia 30.2334
rfoot -31.0297 -34.3895
rtoes 13.9778
lfemur -13.3315 -24.9139 -22.9806
ltibia 34.0322
lfoot -25.9012 10.7091
ltoes -29.0911
103
root 9.02239 15.051 41.6857 181.852 -14.7048 179.645
lowerback 4.9984 2.30899 1.51984
upperback -4.317 3.13234 -0.0663242
thorax -7.23066 1.4228 -1.26368
lowerneck -2.88761 15.2057 8.42444
upperneck 13.2973 20.1901 -3.64784
head 5.72502 9.97104 -1.05569
rclavicle -6.33626e-014 -5.76476e-015
rhumerus -49.2341 16.3675 -99.4248
rradius 33.256
rwrist 13.3386
rhand -6.92256 -52.014
rfingers 7.12502
rthumb 18.9453 -81.1114
lclavicle -6.33626e-014 -5.76476e-015
lhumerus -41.7201 -10.229 93.1278
lradius 36.5868
lwrist -16.952
lhand -3.86606 -34.4576
lfingers 7.12502
lthumb 21.8826 -5.67505
rfemur -6.17276 16.3679 27.7082
rtibia 30.2693
rfoot -31.2324 -34.2614
rtoes 14.7593
lfemur -13.2565 -24.7202 -23.0168
ltibia 33.9988
lfoot -25.7803 10.5744
ltoes -29.3361
104
root 9.02602 15.0511 41.6813 181.876 -14.6367 179.634
lowerback 4.91863 2.3382 1.43009
upperback -4.30682 3.16261 -0.059458
thorax -7.17774 1.44329 -1.20571
lowerneck -2.89586 15.2062 8.33614
upperneck 13.2516 20.1819 -3.54095
head 5.69112 9.97107 -1.01721
rclavicle 8.29429e-014 7.95139e-015
rhumerus -49.2006 16.3926 -99.468
rradius 33.2151
rwrist 13.3051
rhand -7.11649 -51.8669
rfingers 7.12502
rthumb 18.7588 -80.9824
lclavicle 8.29429e-014 7.95139e-015
lhumerus -41.6638 -10.2572 93.0961
lradius 36.5074
lwrist -17.0556
lhand -4.12106 -34.9507
lfingers 7.12502
lthumb 21.6377 -6.13972
rfemur -6.20961 16.481 27.7167
rtibia 30.2721
rfoot -31.3239 -34.2942
rtoes 14.7578
lfemur -13.2902 -24.6115 -22.9998
ltibia 33.9944
lfoot -25.7051 10.4656
ltoes -29.7434
105
root 9.02044 15.0539 41.6869 181.955 -14.6517 179.611
lowerback 4.9399 2.32627 1.52353
upperback -4.34715 3.15216 -0.0776166
thorax -7.22749 1.43105 -1.27766
lowerneck -2.89352 15.2215 8.25912
upperneck 13.2182 20.2039 -3.50697
head 5.66997 9.98124 -0.99815
rclavicle 2.84386e-014 8.74653e-015
rhumerus -49.18 16.4213 -99.4559
rradius 33.2363
rwrist 13.1177
rhand -7.23236 -51.6558
rfingers 7.12502
rthumb 18.6473 -80.7821
lclavicle 2.84386e-014 8.74653e-015
lhumerus -41.6121 -10.2005 93.0946
lradius 36.4187
lwrist -17.2019
lhand -4.22155 -35.1755
lfingers 7.12502
lthumb 21.5412 -6.35339
rfemur -6.32102 16.2529 27.604
rtibia 30.2852
rfoot -31.1623 -34.1851
rtoes 13.9718
lfemur -13.3748 -24.5805 -23.0119
ltibia 33.9935
lfoot -25.6332 10.4271
ltoes -30.1841
106
root 9.02008 15.0547 41.685 182.035 -14.6707 179.648
lowerback 4.8376 2.34138 1.54085
upperback -4.37106 3.16947 -0.0840228
thorax -7.19186 1.43801 -1.29156
lowerneck -2.94414 15.2143 8.30827
upperneck 13.2466 20.1868 -3.49355
head 5.68986 9.97503 -0.996259
rclavicle 1.54928e-014 -9.93923e-016
rhumerus -49.1405 16.2915 -99.4066
rradius 33.2838
rwrist 12.9253
rhand -7.08186 -51.7619
rfingers 7.12502
rthumb 18.7921 -80.8742
lclavicle 1.54928e-014 -9.93923e-016
lhumerus -41.6154 -10.2339 93.0877
lradius 36.4214
lwrist -17.258
lhand -4.1423 -35.0393
lfingers 7.12502
lthumb 21.6173 -6.22592
rfemur -6.42052 16.3502 27.627
rtibia 30.299
rfoot -31.2118 -34.2465
rtoes 14.2415
lfemur -13.473 -24.6244 -22.9211
ltibia 33.9895
lfoot -25.6854 10.4066
ltoes -29.9163
107
root 9.01749 15.0538 41.683 182.108 -14.6566 179.505
lowerback 4.75527 2.36135 1.40265
upperback -4.36983 3.18024 -0.125662
thorax -7.1474 1.44978 -1.25519
lowerneck -2.98108 15.2093 8.34131
upperneck 13.2747 20.1772 -3.49979
head 5.70828 9.97047 -0.998502
rclavicle 7.51655e-015 3.37934e-015
rhumerus -49.0926 16.2194 -99.3502
rradius 33.2568
rwrist 12.95
rhand -6.9664 -51.7312
rfingers 7.12502
rthumb 18.9031 -80.8327
lclavicle 7.51655e-015 3.37934e-015
lhumerus -41.6073 -10.2463 93.105
lradius 36.4295
lwrist -17.2531
lhand -4.12878 -34.8493
lfingers 7.12502
lthumb 21.6303 -6.03745
rfemur -6.46731 16.3508 27.4608
rtibia 30.3389
rfoot -31.2029 -34.2781
rtoes 14.2313
lfemur -13.4764 -24.694 -23.0754
ltibia 33.957
lfoot -25.7436 10.5101
ltoes -29.3754
108
root 9.0177 15.0502 41.6795 181.932 -14.6253 179.566
lowerback 4.85083 2.35554 1.42012
upperback -4.30623 3.182 -0.0776402
thorax -7.13672 1.45322 -1.21793
lowerneck -2.98377 15.2239 8.29737
upperneck 13.2639 20.2019 -3.51224
head 5.7035 9.97978 -0.994759
rclavicle 3.07619e-014 -3.97569e-015
rhumerus -49.0193 16.2597 -99.3052
rradius 33.1814
rwrist 12.9677
rhand -6.93022 -51.3653
rfingers 7.12502
rthumb 18.9379 -80.4634
lclavicle 3.07619e-014 -3.97569e-015
lhumerus -41.5769 -10.214 93.1122
lradius 36.415
lwrist -17.3054
lhand -4.2777 -34.7127
lfingers 7.12502
lthumb 21.4873 -5.88445
rfemur -6.26572 16.3639 27.6004
rtibia 30.3843
rfoot -31.2733 -34.3159
rtoes 14.0597
lfemur -13.2236 -24.8217 -23.1149
ltibia 33.9196
lfoot -25.7256 10.819
ltoes -29.6309
109
root 9.01776 15.0514 41.6755 181.958 -14.7006 179.542
lowerback 4.76865 2.32397 1.39499
upperback -4.29513 3.13496 -0.0913477
thorax -7.07903 1.43186 -1.20905
lowerneck -3.01852 15.234 8.31462
upperneck 13.2935 20.2156 -3.53231
head 5.72324 9.98471 -0.99694
rclavicle 5.07771e-014 -6.55989e-015
rhumerus -48.9814 16.2839 -99.3281
rradius 33.1547
rwrist 13.0382
rhand -6.68367 -51.388
rfingers 7.12502
rthumb 19.175 -80.4627
lclavicle 5.07771e-014 -6.55989e-015
lhumerus -41.5562 -10.2224 93.0687
lradius 36.412
lwrist -17.3922
lhand -4.4615 -34.8377
lfingers 7.12502
lthumb 21.3107 -5.98937
rfemur -6.27771 16.3472 27.598
rtibia 30.4622
rfoot -31.4402 -34.3021
rtoes 14.2183
lfemur -13.1944 -24.936 -23.1359
ltibia 33.8452
lfoot -25.5857 10.8374
ltoes -30.2645
110
root 9.01531 15.0546 41.675 182.045 -14.5252 179.471
lowerback 4.70681 2.38561 1.36198
upperback -4.32199 3.20957 -0.133302
thorax -7.06913 1.46832 -1.23997
lowerneck -3.04816 15.242 8.28905
upperneck 13.3171 20.2174 -3.46211
head 5.72566 9.98806 -0.970463
rclavicle -2.60905e-015 -1.59028e-015
rhumerus -49.0315 16.3443 -99.4111
rradius 33.2148
rwrist 13.0649
rhand -5.99136 -51.998
rfingers 7.12502
rthumb 19.8407 -81.0053
lclavicle -2.60905e-015 -1.59028e-015
lhumerus -41.5939 -10.2483 93.0541
lradius 36.4523
lwrist -17.3858
lhand -4.39158 -34.9863
lfingers 7.12502
lthumb 21.3779 -6.1456
rfemur -6.40729 16.2941 27.4443
rtibia 30.5088
rfoot -31.2546 -34.1538
rtoes 13.7854
lfemur -13.2305 -24.9419 -23.2093
ltibia 33.8
lfoot -25.5576 10.8825
ltoes -30.1579
111
root 9.01236 15.0547 41.6741 182.107 -14.5017 179.416
lowerback 4.64356 2.40136 1.34741
upperback -4.33865 3.22567 -0.156498
thorax -7.04924 1.47597 -1.25507
lowerneck -2.99349 15.2349 8.216
upperneck 13.2432 20.2053 -3.38996
head 5.67757 9.98598 -0.950515
rclavicle -9.10682e-014 -1.55052e-014
rhumerus -49.0685 16.3921 -99.443
rradius 33.2951
rwrist 12.9205
rhand -5.68067 -52.3878
rfingers 7.12502
rthumb 20.1393 -81.364
lclavicle -9.10682e-014 -1.55052e-014
lhumerus -41.6764 -10.2615 93.0826
lradius 36.527
lwrist -17.3653
lhand -4.27575 -34.9212
lfingers 7.12502
lthumb 21.4891 -6.09317
rfemur -6.47469 16.3424 27.358
rtibia 30.5283
rfoot -31.2926 -34.1597
rtoes 13.873
lfemur -13.2578 -24.9881 -23.2616
ltibia 33.7667
lfoot -25.6401 11.0119
ltoes -29.5163
